<?xml version="1.0" encoding="UTF-8"?>
<svg width="38px" height="33px" viewBox="0 0 38 33" version="1.1" xmlns="http://www.w3.org/2000/svg" xmlns:xlink="http://www.w3.org/1999/xlink">
    <title>logo</title>
    <defs>
        <polygon id="path-1" points="0 0 37.7158948 0 37.7158948 17.3582431 0 17.3582431"></polygon>
    </defs>
    <g id="页面-1" stroke="none" stroke-width="1" fill="none" fill-rule="evenodd">
        <g id="发卡-计划管理" transform="translate(-26.000000, -31.000000)">
            <g id="logo" transform="translate(26.000000, 31.000000)">
                <polygon id="Fill-1" fill="#FFFFFF" points="0 3.77499242 37.7161943 3.77499242 37.7161943 0 0 0"></polygon>
                <g id="编组" transform="translate(0.000174, 6.139907)">
                    <path d="M18.8579474,5.12796264 C14.256243,8.52827164 7.73822522,11.3135942 0,11.3135942 L0,4.70762703 C8.06138518,4.71403751 14.6137919,2.31723785 18.8579474,0 C23.1021628,2.31723785 29.6545096,4.71403751 37.7158948,4.70762703 L37.7158948,11.3135942 C29.9776695,11.3135942 23.4597117,8.52827164 18.8579474,5.12796264" id="Fill-2" fill="#FFFFFF"></path>
                    <g transform="translate(0.000000, 9.501849)">
                        <mask id="mask-2" fill="white">
                            <use xlink:href="#path-1"></use>
                        </mask>
                        <g id="Clip-5"></g>
                        <path d="M18.8579474,8.29623632 C13.6037522,14.8527769 6.21229192,17.3605317 0,17.3582566 L0,7.45892011 C6.58571722,7.46856579 13.3364293,5.14653506 18.8579474,0 C24.3794654,5.14653506 31.1301775,7.46856579 37.7158948,7.45892011 L37.7158948,17.3582566 C31.5036028,17.3605317 24.1121425,14.8527769 18.8579474,8.29623632" id="Fill-4" fill="#FFFFFF" mask="url(#mask-2)"></path>
                    </g>
                </g>
            </g>
        </g>
    </g>
</svg>