<?xml version="1.0" encoding="UTF-8"?>
<svg width="16px" height="16px" viewBox="0 0 16 16" version="1.1" xmlns="http://www.w3.org/2000/svg" xmlns:xlink="http://www.w3.org/1999/xlink">
    <title>会议</title>
    <defs>
        <polygon id="path-1" points="0 0 16 0 16 9.66666667 0 9.66666667"></polygon>
        <linearGradient x1="5.67935057%" y1="16.848007%" x2="94.8887129%" y2="65.1853606%" id="linearGradient-3">
            <stop stop-color="#FF5F92" offset="0%"></stop>
            <stop stop-color="#F33F3F" offset="100%"></stop>
        </linearGradient>
        <polygon id="path-4" points="0 0 16 0 16 4.66666667 0 4.66666667"></polygon>
        <linearGradient x1="5.67935057%" y1="42.2736941%" x2="95.631702%" y2="53.6328801%" id="linearGradient-6">
            <stop stop-color="#FF5F92" offset="0%"></stop>
            <stop stop-color="#F33F3F" offset="99.1740193%"></stop>
        </linearGradient>
    </defs>
    <g id="页面-1" stroke="none" stroke-width="1" fill="none" fill-rule="evenodd">
        <g id="首页" transform="translate(-249.000000, -106.000000)">
            <g id="会议" transform="translate(249.000000, 106.000000)">
                <g id="编组" transform="translate(0.000000, 6.333333)">
                    <mask id="mask-2" fill="white">
                        <use xlink:href="#path-1"></use>
                    </mask>
                    <g id="Clip-2"></g>
                    <path d="M11.292568,3.62044185 L11.1999531,3.62558374 L4.7999778,3.62558374 L4.7073629,3.62044185 C4.30288203,3.57443801 3.99710979,3.22998061 3.99710979,2.82001991 C3.99710979,2.41015857 4.30288203,2.06570116 4.7073629,2.01974701 L4.7999778,2.01459945 L11.1999531,2.01459945 C11.6248616,2.01301535 11.9768919,2.3462202 12.0015629,2.77334539 C12.0261352,3.20052027 11.7148613,3.57250049 11.292568,3.62044185 L11.292568,3.62044185 Z M11.292568,6.43969171 L11.1999531,6.44473425 L4.7999778,6.44473425 L4.7073629,6.43969171 C4.30288203,6.39373756 3.99710979,6.04913111 3.99710979,5.63926977 C3.99710979,5.22940843 4.30288203,4.88485166 4.7073629,4.83889751 L4.7999778,4.83384931 L11.1999531,4.83384931 C11.6248616,4.83226521 11.9768919,5.16547006 12.0015629,5.59254558 C12.0261352,6.01964593 11.7148613,6.39167583 11.292568,6.43969171 L11.292568,6.43969171 Z M-9.86839569e-06,0 L-9.86839569e-06,8.05568804 C-9.86839569e-06,8.94543491 0.716336975,9.66666667 1.59995313,9.66666667 L14.3999531,9.66666667 C15.2835939,9.66666667 16.0000148,8.94543491 16.0000148,8.05568804 L16.0000148,0 L-9.86839569e-06,0 Z" id="Fill-1" fill="url(#linearGradient-3)" mask="url(#mask-2)"></path>
                </g>
                <g id="编组">
                    <mask id="mask-5" fill="white">
                        <use xlink:href="#path-4"></use>
                    </mask>
                    <g id="Clip-4"></g>
                    <path d="M11.9999272,0.00279981111 C12.4060366,0.00270392717 12.7478534,0.298218237 12.794901,0.690095908 L12.8000079,0.780178871 L12.8000079,1.55746205 L14.3999472,1.55746205 C15.284156,1.55746205 16,2.25288431 16,3.11200443 L16,4.66666667 L0,4.66666667 L0,3.11200443 C0,2.25288431 0.715755181,1.55746205 1.59996398,1.55746205 L3.20000197,1.55746205 L3.20000197,0.780178871 C3.19847237,0.367230704 3.52940923,0.0252845955 3.95360248,0.00131361001 C4.37784507,-0.0225614916 4.74721935,0.279880433 4.79493307,0.690095908 L4.79996595,0.780178871 L4.79915181,1.55746205 L11.1999452,1.55746205 L11.1999452,0.780178871 C11.1999452,0.573980454 11.2842707,0.376315707 11.4343198,0.230524174 C11.5842701,0.0847326396 11.7878059,0.00279981111 11.9999272,0.00279981111" id="Fill-3" fill="url(#linearGradient-6)" mask="url(#mask-5)"></path>
                </g>
            </g>
        </g>
    </g>
</svg>