<?xml version="1.0" standalone="no"?><!DOCTYPE svg PUBLIC "-//W3C//DTD SVG 1.1//EN" "http://www.w3.org/Graphics/SVG/1.1/DTD/svg11.dtd"><svg t="1612490922890" class="icon" viewBox="0 0 1024 1024" version="1.1" xmlns="http://www.w3.org/2000/svg" p-id="1204" xmlns:xlink="http://www.w3.org/1999/xlink" width="32" height="32"><defs><style type="text/css"></style></defs><path d="M705.6 32H136.4c-24 0-43.2 19.6-43.2 43.2v854.8c0 24 19.6 43.2 43.2 43.2h711.2c24 0 43.2-19.6 43.2-43.2V266.8L705.6 32z" fill="#A49273" p-id="1205"></path><path d="M240 578.4c-14 0-25.2-11.2-25.2-25.2s11.2-25.2 25.2-25.2h401.2c14 0 25.2 11.2 25.2 25.2s-11.2 25.2-25.2 25.2H240zM235.6 733.2c-14 0-25.2-11.2-25.2-25.2s11.2-25.2 25.2-25.2h406c14 0 25.2 11.2 25.2 25.2s-11.2 25.2-25.2 25.2H235.6z" fill="#D2C7B5" p-id="1206"></path><path d="M895.2 148.8L695.6 348c-7.6 7.6-17.6 11.6-28.4 11.6H620c-22 0-40-18-40-40v-48c0-10.8 4.4-21.2 12-28.8l202.4-196.4c15.6-15.2 40.8-15.2 56.4 0.4l44.4 44.8c15.6 16.4 15.6 41.6 0 57.2z" fill="#D2C7B5" p-id="1207"></path><path d="M238 412c-14 0-25.2-11.2-25.2-25.2s11.2-25.2 25.2-25.2h323.2c14 0 25.2 11.2 25.2 25.2s-11.2 25.2-25.2 25.2H238z" fill="#D2C7B5" p-id="1208"></path><path d="M647.145105 902.343035a144.4 144.4 0 1 0 279.284151-73.524168 144.4 144.4 0 1 0-279.284151 73.524168Z" fill="#D2C7B5" p-id="1209"></path><path d="M854.4 872.8c10 0 18 8 18 18s-8 18-18 18h-80c-11.6 0-20.8-9.2-20.8-20.8v-96.4c0-10 8-18 18-18s18 8 18 18v81.6h64.8z" fill="#A49273" p-id="1210"></path></svg>