<svg xmlns="http://www.w3.org/2000/svg" viewBox="0 0 55.42 63.15"><defs><style>.cls-1{fill:#f7bf94;}</style></defs><title>计划信息</title><g id="图层_2" data-name="图层 2"><g id="图层_1-2" data-name="图层 1"><path class="cls-1" d="M12.36,12.17H37.91a1.78,1.78,0,0,1,1.88,1.88,1.78,1.78,0,0,1-1.88,1.88H12.36a1.77,1.77,0,0,1-1.88-1.88,1.78,1.78,0,0,1,1.88-1.88Z"/><path class="cls-1" d="M12.36,23.07H37.91a1.88,1.88,0,1,1,0,3.76H12.36a1.78,1.78,0,0,1-1.88-1.88,2,2,0,0,1,1.88-1.88Z"/><path class="cls-1" d="M12.36,34.34h10.9a1.88,1.88,0,1,1,0,3.76H12.36a1.88,1.88,0,0,1,0-3.76Z"/><path class="cls-1" d="M48.28,48.49H42.65V42.86a.81.81,0,0,0-.75-.75h-1.5a.81.81,0,0,0-.75.75v7.89a.81.81,0,0,0,.75.75h7.89a.81.81,0,0,0,.75-.75v-1.5c-.38-.75-.38-.75-.75-.75Z"/><path class="cls-1" d="M41.52,63.15a13.87,13.87,0,0,1-13.9-13.9,14.12,14.12,0,0,1,13.9-13.9,13.9,13.9,0,0,1,0,27.81Zm0-24A10.15,10.15,0,1,0,51.66,49.24,10.1,10.1,0,0,0,41.52,39.1Zm0,0"/><path class="cls-1" d="M23.22,58.63H9.45A9.46,9.46,0,0,1,0,49.19V9.45A9.46,9.46,0,0,1,9.45,0H40.82a9.46,9.46,0,0,1,9.45,9.45V31.54a1.91,1.91,0,0,1-3.82,0V9.45a5.64,5.64,0,0,0-5.63-5.63H9.45A5.64,5.64,0,0,0,3.82,9.45V49.19a5.64,5.64,0,0,0,5.63,5.63H23.22a1.91,1.91,0,0,1,0,3.82Z"/></g></g></svg>