<?xml version="1.0" encoding="UTF-8"?>
<svg width="16px" height="16px" viewBox="0 0 16 16" version="1.1" xmlns="http://www.w3.org/2000/svg" xmlns:xlink="http://www.w3.org/1999/xlink">
    <title>议题进程</title>
    <defs>
        <linearGradient x1="0%" y1="-146.320265%" x2="100%" y2="-146.320265%" id="linearGradient-1">
            <stop stop-color="#FE5B88" offset="0%"></stop>
            <stop stop-color="#F34042" offset="100%"></stop>
        </linearGradient>
        <polygon id="path-2" points="0 0 15.5616438 0 15.5616438 10.630137 0 10.630137"></polygon>
        <linearGradient x1="0%" y1="-146.320265%" x2="100%" y2="-146.320265%" id="linearGradient-4">
            <stop stop-color="#FE5B88" offset="0%"></stop>
            <stop stop-color="#F34042" offset="100%"></stop>
        </linearGradient>
    </defs>
    <g id="页面-1" stroke="none" stroke-width="1" fill="none" fill-rule="evenodd">
        <g id="首页" transform="translate(-778.000000, -436.000000)">
            <g id="议题进程" transform="translate(778.000000, 436.000000)">
                <path d="M15.5616438,12.5737947 C15.5616438,12.9660119 15.2368712,13.2889125 14.8424131,13.2889125 L11.2926439,13.2889125 L12.7543792,14.7423708 C12.777517,14.7653772 12.800682,14.7653772 12.800682,14.7885188 C13.0791518,15.08844 13.0559052,15.526697 12.777517,15.8035849 C12.499156,16.0803645 12.0350397,16.0573311 11.7566787,15.7804433 L9.25091286,13.2889125 L6.37398996,13.2889125 L3.89138918,15.7342953 C3.63619319,15.9420288 3.24184388,15.9420288 2.9866207,15.7342953 C2.68498588,15.4805491 2.61532766,15.0191234 2.87052365,14.7193374 L4.33225889,13.2659332 L0.828928522,13.2659332 C0.434470451,13.2659332 0.109589041,12.9429785 0.109589041,12.5507613 C0.109589041,12.1585711 0.434470451,11.8356164 0.828928522,11.8356164 L14.8424131,11.8356164 C15.2368712,11.8356164 15.5616438,12.1585711 15.5616438,12.5737947" id="Fill-1" fill="url(#linearGradient-1)"></path>
                <g id="编组">
                    <mask id="mask-3" fill="white">
                        <use xlink:href="#path-2"></use>
                    </mask>
                    <g id="Clip-4"></g>
                    <path d="M12.2099278,4.16585698 L8.15032954,4.16585698 C7.80033919,4.16585698 7.49704703,3.88789055 7.49704703,3.51735006 C7.49704703,3.16993274 7.77707212,2.86887029 8.15032954,2.86887029 L12.2099278,2.86887029 C12.5598088,2.86887029 12.8631009,3.14683672 12.8631009,3.51735006 C12.8631009,3.88789055 12.5598088,4.16585698 12.2099278,4.16585698 M12.2099278,8.33736176 L8.15032954,8.33736176 C7.80033919,8.33736176 7.49704703,8.05947675 7.49704703,7.6889634 C7.49704703,7.34154608 7.77707212,7.04045649 8.15032954,7.04045649 L12.2099278,7.04045649 C12.5598088,7.04045649 12.8631009,7.31831436 12.8631009,7.6889634 C12.8631009,8.03624503 12.5598088,8.33736176 12.2099278,8.33736176 M6.98984673,2.83133586 L4.84345251,5.12402967 C4.58685854,5.37876438 4.19017,5.37876438 3.93354868,5.12402967 L2.76696886,3.96613476 L2.74370179,3.94290304 C2.4870258,3.68814119 2.51029287,3.27130011 2.76696886,3.03976998 C3.02359018,2.80813128 3.44354579,2.80813128 3.67687269,3.06286599 L4.37677137,3.75770065 L6.07999759,1.90486252 L6.103292,1.90486252 C6.21992811,1.78911103 6.38323507,1.71966013 6.54659671,1.71966013 C6.70990367,1.71966013 6.89650504,1.78911103 7.01325051,1.92809424 C7.24646805,2.18282895 7.24646805,2.59969717 6.98984673,2.83133586 M4.89676719,8.68475194 C4.33679903,8.68475194 3.89357635,8.24470628 3.89357635,7.6889634 C3.89357635,7.1331391 4.33679903,6.71616232 4.87347277,6.71616232 C5.41000981,6.71616232 5.85334186,7.15623512 5.85334186,7.6889634 C5.87660893,8.24470628 5.43338625,8.68475194 4.89676719,8.68475194 M14.0218339,-2.71398583e-06 L1.56312345,-2.71398583e-06 C0.699999839,-2.71398583e-06 -8.20225803e-06,0.694831938 -8.20225803e-06,1.55163726 L-8.20225803e-06,9.07849701 C-8.20225803e-06,9.93532947 0.699999839,10.630137 1.56312345,10.630137 L13.9985122,10.630137 C14.8617725,10.630137 15.5616438,9.93532947 15.5616438,9.10159303 L15.5616438,1.52851411 C15.5616438,0.694831938 14.8617725,-2.71398583e-06 14.0218339,-2.71398583e-06" id="Fill-3" fill="url(#linearGradient-4)" mask="url(#mask-3)"></path>
                </g>
            </g>
        </g>
    </g>
</svg>