<?xml version="1.0" encoding="UTF-8"?>
<svg width="14px" height="16px" viewBox="0 0 14 16" version="1.1" xmlns="http://www.w3.org/2000/svg" xmlns:xlink="http://www.w3.org/1999/xlink">
    <title>任务统计</title>
    <defs>
        <polygon id="path-1" points="0 0 13.9130435 0 13.9130435 16 0 16"></polygon>
        <linearGradient x1="50%" y1="0%" x2="50%" y2="100%" id="linearGradient-3">
            <stop stop-color="#FE5C88" offset="0%"></stop>
            <stop stop-color="#F33F41" offset="100%"></stop>
        </linearGradient>
    </defs>
    <g id="页面-1" stroke="none" stroke-width="1" fill="none" fill-rule="evenodd">
        <g id="首页" transform="translate(-1361.000000, -106.000000)">
            <g id="任务统计" transform="translate(1361.000000, 106.000000)">
                <mask id="mask-2" fill="white">
                    <use xlink:href="#path-1"></use>
                </mask>
                <g id="Clip-2"></g>
                <path d="M6.98898982,0.893412913 C6.44312578,0.893412913 5.95617391,1.37013159 5.95617391,1.90820294 C5.95617391,2.44687981 6.44312578,2.92359849 6.98898982,2.92359849 C7.53554742,2.92359849 8.02249928,2.56423316 8.02249928,1.90820294 C8.02467901,1.63771207 7.91638602,1.3776908 7.72195403,1.18677675 C7.52758149,0.995960363 7.26339811,0.890209526 6.98898982,0.893412913 L6.98898982,0.893412913 Z M10.143635,3.75634238 L3.70453179,3.75634238 C3.57503596,3.75886211 3.45009776,3.70956121 3.35807348,3.61976871 C3.2660294,3.52995667 3.21486517,3.40727086 3.21616762,3.2796237 L3.21616762,1.84813944 C3.21616762,1.60880345 3.40218331,1.37013159 3.70453179,1.37013159 L4.06840813,1.37013159 C4.31194351,1.37013159 4.55537981,1.1928124 4.55537981,0.893412913 C4.56148305,0.398665418 4.99503151,0 5.52736141,0 L8.38298713,0 C8.91599076,0 9.34884567,0.398665418 9.35425536,0.893412913 C9.35425536,1.13206524 9.53895783,1.37013159 9.84130631,1.37013159 L10.1443483,1.37013159 C10.3877846,1.37013159 10.6313002,1.55012678 10.6320062,1.84813944 L10.6320062,3.27892052 C10.6329251,3.40635281 10.5816816,3.52874564 10.4898753,3.61846001 C10.3981483,3.70819391 10.2735271,3.75763154 10.1443483,3.75565873 L10.143635,3.75634238 Z M10.1639263,8.00000977 L3.68426029,8.00000977 C3.31287379,8.00000977 3.01191241,8.28003267 3.01191241,8.62535388 C3.01191241,8.97008911 3.31287379,9.25011201 3.68426029,9.25011201 L10.1639263,9.25011201 C10.5359271,9.25011201 10.8355608,8.97008911 10.8355608,8.62535388 C10.8355608,8.27864584 10.5339257,8.00000977 10.1632327,8.00000977 L10.1639263,8.00000977 Z M3.68487458,11.728928 L7.37385102,11.728928 C7.74515826,11.728928 8.04417769,11.4489051 8.04417769,11.1042676 C8.04417769,10.7588682 7.74385042,10.4788258 7.37184963,10.4788258 L3.68487458,10.4788258 C3.31356734,10.4788258 3.01260597,10.7588682 3.01260597,11.1042676 C3.01260597,11.4489051 3.31356734,11.728928 3.68487458,11.728928 L3.68487458,11.728928 Z M12.6354042,16 L1.27702502,16 C0.545170494,16 0,15.2846095 0,14.7465381 L0,3.1055665 C0,2.44687981 0.364569887,1.96885243 1.15387023,2.02952146 L1.45552516,2.02952146 C1.69904073,2.02952146 1.94324984,2.2075243 1.94324984,2.5075293 L1.94324984,4.59770025 C1.94210053,4.72513255 1.99318549,4.84758397 2.08483327,4.937396 C2.17648104,5.02726663 2.30094367,5.07686053 2.43022152,5.07512211 L11.4822077,5.01376944 C11.6115648,5.01613291 11.7363247,4.96677341 11.8282102,4.87696137 C11.9200165,4.78714934 11.9711807,4.66454166 11.9698729,4.53705076 L11.9698729,2.44687981 C11.9698729,2.14685527 12.2133092,1.96885243 12.5163314,1.96549278 L12.8186997,1.96549278 C13.4883328,1.96549278 13.9130435,2.50356413 13.9130435,3.04095184 L13.9130435,14.7465381 C13.9130435,15.3438917 13.2434896,16 12.6354042,16 L12.6354042,16 Z" id="Fill-1" fill="url(#linearGradient-3)" mask="url(#mask-2)"></path>
            </g>
        </g>
    </g>
</svg>