<svg xmlns="http://www.w3.org/2000/svg" viewBox="0 0 55.73 60.01"><defs><style>.cls-1{fill:#f7bf94;}</style></defs><title>设备状态</title><g id="图层_2" data-name="图层 2"><g id="图层_1-2" data-name="图层 1"><path class="cls-1" d="M49.3,0H6.43A6.43,6.43,0,0,0,0,6.43V53.58A6.43,6.43,0,0,0,6.43,60H49.3a6.43,6.43,0,0,0,6.43-6.43V6.43A6.43,6.43,0,0,0,49.3,0ZM6.43,4.39H49.3a2.14,2.14,0,0,1,2.14,2.14V39.89h-47V6.43a2.14,2.14,0,0,1,2-2ZM49.3,55.73H6.43a2.14,2.14,0,0,1-2.14-2.14V44.17H51.44v9.41a2.14,2.14,0,0,1-2.14,2.14Zm0,0"/><path class="cls-1" d="M21.82,32.45a2.31,2.31,0,0,0,3.11,0L41.6,15.77a2.14,2.14,0,0,0-3-3L23.36,27.86l-6.09-6a2.14,2.14,0,0,0-3,3ZM13.52,47.39H9.24a2.14,2.14,0,1,0,0,4.29h4.29a2.14,2.14,0,0,0,0-4.29Zm32.51,0H20.32a2.14,2.14,0,0,0,0,4.29H46a2.14,2.14,0,1,0,0-4.29Zm0,0"/></g></g></svg>