<?xml version="1.0" encoding="UTF-8"?>
<svg width="16px" height="16px" viewBox="0 0 16 16" version="1.1" xmlns="http://www.w3.org/2000/svg" xmlns:xlink="http://www.w3.org/1999/xlink">
    <title>统计</title>
    <defs>
        <polygon id="path-1" points="-3.46859721e-17 0 16 0 16 8.44444444 -3.46859721e-17 8.44444444"></polygon>
        <linearGradient x1="91.1232565%" y1="0%" x2="91.1232565%" y2="158.801419%" id="linearGradient-3">
            <stop stop-color="#FE5C8A" offset="0%"></stop>
            <stop stop-color="#F23F3F" offset="100%"></stop>
        </linearGradient>
        <linearGradient x1="91.1232565%" y1="0%" x2="91.1232565%" y2="158.801419%" id="linearGradient-4">
            <stop stop-color="#FE5C8A" offset="0%"></stop>
            <stop stop-color="#F23F3F" offset="100%"></stop>
        </linearGradient>
        <linearGradient x1="91.1232565%" y1="0%" x2="91.1232565%" y2="158.801419%" id="linearGradient-5">
            <stop stop-color="#FE5C8A" offset="0%"></stop>
            <stop stop-color="#F23F3F" offset="100%"></stop>
        </linearGradient>
        <linearGradient x1="91.1232565%" y1="0%" x2="91.1232565%" y2="158.801419%" id="linearGradient-6">
            <stop stop-color="#FE5C8A" offset="0%"></stop>
            <stop stop-color="#F23F3F" offset="100%"></stop>
        </linearGradient>
        <polygon id="path-7" points="0 7.89491929e-16 2.66666667 7.89491929e-16 2.66666667 11.1111111 0 11.1111111"></polygon>
        <linearGradient x1="91.1232565%" y1="0%" x2="91.1232565%" y2="158.801419%" id="linearGradient-9">
            <stop stop-color="#FE5C8A" offset="0%"></stop>
            <stop stop-color="#F23F3F" offset="100%"></stop>
        </linearGradient>
    </defs>
    <g id="页面-1" stroke="none" stroke-width="1" fill="none" fill-rule="evenodd">
        <g id="首页" transform="translate(-778.000000, -106.000000)">
            <g id="统计" transform="translate(778.000000, 106.000000)">
                <g id="编组">
                    <mask id="mask-2" fill="white">
                        <use xlink:href="#path-1"></use>
                    </mask>
                    <g id="Clip-2"></g>
                    <path d="M16,0 L12.7207916,0.360569928 L13.8005271,1.44210367 L10.2413795,5.80055185 L6.54630817,2.37951898 C6.29834157,2.14716517 5.90642587,2.14716517 5.65053152,2.37149936 L0.219889277,7.28275362 C-0.0520362939,7.53106843 -0.076073374,7.95573664 0.171912749,8.22812987 C0.299811104,8.37230699 0.48378947,8.44444444 0.667767836,8.44444444 C0.827728649,8.44444444 0.987669935,8.38836579 1.11566592,8.27618891 L6.09040423,3.77356362 L9.85748918,7.25869476 C9.99349102,7.38689132 10.1773913,7.44298954 10.3533443,7.43495036 C10.5373422,7.41891112 10.7052893,7.33081266 10.8252599,7.19457693 L14.7442803,2.39549954 L15.6400569,3.29281675 L16,0 Z" id="Fill-1" fill="url(#linearGradient-3)" mask="url(#mask-2)"></path>
                </g>
                <path d="M2.16669973,16 L0.499966939,16 C0.224999364,16 0,15.7900221 0,15.5333699 L0,10.2444838 C0,9.98775563 0.224999364,9.77777778 0.499966939,9.77777778 L2.16669973,9.77777778 C2.44168765,9.77777778 2.66666667,9.98775563 2.66666667,10.2444838 L2.66666667,15.5333699 C2.66666667,15.7900221 2.44168765,16 2.16669973,16" id="Fill-3" fill="url(#linearGradient-4)"></path>
                <path d="M6.61114417,16 L4.94441138,16 C4.66944381,16 4.44444444,15.7800234 4.44444444,15.5111499 L4.44444444,6.71115189 C4.44444444,6.4421988 4.66944381,6.22222222 4.94441138,6.22222222 L6.61114417,6.22222222 C6.88613209,6.22222222 7.11111111,6.4421988 7.11111111,6.71115189 L7.11111111,15.5111499 C7.11111111,15.7800234 6.88613209,16 6.61114417,16" id="Fill-5" fill="url(#linearGradient-5)"></path>
                <path d="M11.0555225,16 L9.38892195,16 C9.11388139,16 8.88888889,15.7866898 8.88888889,15.5259645 L8.88888889,9.36300154 C8.88888889,9.10227623 9.11388139,8.88888889 9.38892195,8.88888889 L11.0555225,8.88888889 C11.3305224,8.88888889 11.5555556,9.10227623 11.5555556,9.36300154 L11.5555556,15.5259645 C11.5555556,15.7866898 11.3305224,16 11.0555225,16" id="Fill-7" fill="url(#linearGradient-6)"></path>
                <g id="编组" transform="translate(13.333333, 4.888889)">
                    <mask id="mask-8" fill="white">
                        <use xlink:href="#path-7"></use>
                    </mask>
                    <g id="Clip-10"></g>
                    <path d="M2.16663857,11.1111111 L0.500034205,11.1111111 C0.224972668,11.1111111 0,10.8968475 0,10.6349569 L0,0.476154215 C0,0.214263584 0.224972668,7.89491929e-16 0.500034205,7.89491929e-16 L2.16663857,7.89491929e-16 C2.4417001,7.89491929e-16 2.66667277,0.214263584 2.66667277,0.476154215 L2.66667277,10.6349569 C2.66667277,10.8968475 2.4417001,11.1111111 2.16663857,11.1111111" id="Fill-9" fill="url(#linearGradient-9)" mask="url(#mask-8)"></path>
                </g>
            </g>
        </g>
    </g>
</svg>